<svg width="424" height="424" viewBox="0 0 424 424" fill="none" xmlns="http://www.w3.org/2000/svg">
<circle cx="212" cy="212" r="212" fill="#DE002D"/>
<path d="M212 66.1666V95.3333" stroke="white" stroke-width="21.875" stroke-linecap="round"/>
<path d="M212 328.667V357.833" stroke="white" stroke-width="21.875" stroke-linecap="round"/>
<path d="M66.1666 212H95.3333" stroke="white" stroke-width="21.875" stroke-linecap="round"/>
<path d="M328.667 212H357.833" stroke="white" stroke-width="21.875" stroke-linecap="round"/>
<path d="M124.5 299.5L129.503 294.498" stroke="white" stroke-width="21.875" stroke-linecap="round"/>
<path d="M294.494 129.506L299.5 124.5" stroke="white" stroke-width="21.875" stroke-linecap="round"/>
<path d="M299.5 299.5L294.498 294.498" stroke="white" stroke-width="21.875" stroke-linecap="round"/>
<path d="M129.506 129.506L124.5 124.5" stroke="white" stroke-width="21.875" stroke-linecap="round"/>
<path d="M142.729 202.953C142.729 208.993 147.626 213.89 153.667 213.89C159.707 213.89 164.604 208.993 164.604 202.953H142.729ZM212 181.389L204.058 188.909C206.123 191.09 208.996 192.327 212 192.327C215.004 192.327 217.877 191.09 219.942 188.909L212 181.389ZM187.076 241.19C182.442 237.314 175.544 237.928 171.668 242.561C167.792 247.194 168.405 254.092 173.038 257.968L187.076 241.19ZM164.604 202.953C164.604 192.527 170.39 184.23 177.599 180.88C184.069 177.874 193.714 177.984 204.058 188.909L219.942 173.869C204.037 157.071 184.516 153.544 168.381 161.042C152.986 168.195 142.729 184.541 142.729 202.953H164.604ZM187.437 269.445C190.364 271.79 193.924 274.64 197.637 276.845C201.34 279.045 206.261 281.271 212 281.271V259.396C211.905 259.396 210.994 259.336 208.808 258.038C206.63 256.745 204.246 254.884 201.116 252.375L187.437 269.445ZM236.563 269.445C244.5 263.084 255.858 254.907 264.701 244.783C273.919 234.232 281.271 220.725 281.271 202.953H259.396C259.396 214.017 255.024 222.611 248.228 230.391C241.057 238.599 232.11 244.982 222.884 252.375L236.563 269.445ZM281.271 202.953C281.271 184.541 271.014 168.195 255.619 161.042C239.484 153.544 219.962 157.071 204.058 173.869L219.942 188.909C230.286 177.984 239.931 177.874 246.401 180.88C253.611 184.23 259.396 192.527 259.396 202.953H281.271ZM222.884 252.375C219.754 254.884 217.37 256.745 215.192 258.038C213.006 259.336 212.095 259.396 212 259.396V281.271C217.739 281.271 222.66 279.045 226.363 276.845C230.076 274.64 233.636 271.79 236.563 269.445L222.884 252.375ZM201.116 252.375C196.241 248.469 191.821 245.161 187.076 241.19L173.038 257.968C177.923 262.054 183.336 266.16 187.437 269.445L201.116 252.375Z" fill="white"/>
</svg>
